<svg width="24" height="24" viewBox="0 0 24 24" fill="none" xmlns="http://www.w3.org/2000/svg">
<path d="M19.732 12.4545C19.6835 12.4879 19.3487 12.7228 18.8821 13.1003C18.8105 9.60976 17.683 4.854 15.6961 4.854C13.7093 4.854 12.5819 9.6096 12.5103 13.1004C12.0437 12.7226 11.7089 12.4878 11.6605 12.4543L10.4375 11.6058L10.9004 13.0206C10.9059 13.0373 11.4456 14.7098 11.4456 16.7347C11.4456 19.1441 13.0871 21.1041 15.1053 21.1041H16.287C18.3046 21.1041 19.9464 19.1439 19.9464 16.7347C19.9464 14.7098 20.4864 13.0373 20.4915 13.021L20.9584 11.6031L19.732 12.4545ZM13.5142 12.9242C13.5272 12.4771 13.5555 12.0377 13.5978 11.6104H14.3692V10.611H13.7241C13.8041 10.0882 13.903 9.59244 14.0146 9.13071H14.8716V8.13128H14.2924C14.7369 6.73958 15.2837 5.85326 15.6963 5.85326C16.3193 5.85326 17.2497 7.87776 17.6685 10.611H17.3675V11.6104H17.7946C17.8369 12.0375 17.8652 12.4771 17.8782 12.9242H17.0915V13.9236H17.8782C17.8775 13.9409 17.8769 13.9578 17.8765 13.9747C17.0837 14.7158 16.2225 15.6623 15.6961 16.6642C15.1694 15.6621 14.3083 14.7162 13.5157 13.9747C13.5154 13.9578 13.5147 13.9409 13.5141 13.9236H14.0932V12.9242H13.5142ZM18.9471 16.7348C18.9471 18.5931 17.7541 20.1049 16.2871 20.1049H15.1055C13.6385 20.1049 12.4452 18.5931 12.4452 16.7348C12.4452 15.7412 12.3281 14.8363 12.1973 14.1367C13.5152 15.2562 15.1966 17.013 15.1966 18.4415H16.196C16.196 17.013 17.877 15.2562 19.195 14.1367C19.0645 14.8361 18.9471 15.7412 18.9471 16.7348Z" fill="#353535"/>
<path d="M16.8705 8.13135H15.8711V9.13077H16.8705V8.13135Z" fill="#353535"/>
<path d="M16.3681 10.6108H15.3687V11.6103H16.3681V10.6108Z" fill="#353535"/>
<path d="M16.0922 12.9241H15.0928V13.9235H16.0922V12.9241Z" fill="#353535"/>
<path d="M7.6242 5.74994L8.80585 4.56829L8.09926 3.8617L7.00772 4.95323V2.89575H6.00829V4.95323L4.91642 3.86103L4.20983 4.56762L5.39765 5.75577C3.7401 6.18036 3.0415 7.70348 3.0415 10.7119C3.0415 12.7394 3.37465 15.0246 3.93299 16.8246C4.40172 18.3363 5.22908 20.1386 6.50801 20.1385C7.78694 20.1385 8.61396 18.3362 9.08236 16.8244C9.6407 15.0243 9.97351 12.7396 9.97351 10.7121C9.97384 8.71423 9.66119 7.40732 8.98974 6.59978C8.59114 6.12039 8.10825 5.8742 7.6242 5.74994ZM8.12774 16.5286C7.56889 18.3319 6.91127 19.1391 6.50784 19.1391C6.10407 19.1391 5.44662 18.3319 4.88727 16.5286C4.41588 15.0076 4.11389 13.1194 4.05275 11.36H5.34468V10.3606H4.04459C4.05176 10.0378 4.06891 9.7448 4.09406 9.47546H6.11706V8.47603H4.25047C4.68439 6.6311 5.7093 6.62877 6.50801 6.62843C7.36435 6.62843 7.86073 6.8055 8.22119 7.23875C8.7209 7.8399 8.97425 9.00856 8.97408 10.7121C8.97408 12.6443 8.65777 14.8189 8.12774 16.5286Z" fill="#353535"/>
<path d="M6.97999 10.3604H5.96924V11.3598H6.97999V10.3604Z" fill="#353535"/>
</svg>
