<svg width="24" height="24" viewBox="0 0 24 24" fill="none" xmlns="http://www.w3.org/2000/svg">
<path d="M23.25 0.375H0.75C0.542625 0.375 0.375 0.543 0.375 0.75V2.25V8.25V9.75V15V16.5V21.75V23.25C0.375 23.457 0.542625 23.625 0.75 23.625H23.25C23.4574 23.625 23.625 23.457 23.625 23.25V21.75V16.5V15V9.75V8.25V2.25V0.75C23.625 0.543 23.4574 0.375 23.25 0.375ZM17.625 21.375V20.6227C18.2213 20.6111 18.7804 20.3752 19.2026 19.9526C19.6361 19.5188 19.875 18.9424 19.875 18.3296V18C19.875 17.793 19.7074 17.625 19.5 17.625H19.1704C18.5569 17.625 17.9805 17.8639 17.5474 18.2974C17.4345 18.4102 17.3355 18.5333 17.25 18.6634C17.1645 18.5333 17.0655 18.4102 16.9526 18.2974C16.5195 17.8639 15.9431 17.625 15.3296 17.625H15C14.7926 17.625 14.625 17.793 14.625 18V18.3296C14.625 18.9424 14.8639 19.5188 15.2974 19.9526C15.72 20.3756 16.2788 20.6111 16.875 20.6227V21.375H13.125V16.875H21.375V21.375H17.625ZM17.6257 19.8743C17.6377 19.4839 17.8009 19.1047 18.0776 18.8276C18.3585 18.5464 18.7286 18.387 19.1243 18.3757C19.1123 18.7661 18.9491 19.1453 18.6724 19.4224C18.3915 19.7032 18.0214 19.863 17.6257 19.8743ZM16.8743 19.8743C16.4786 19.863 16.1085 19.7032 15.8276 19.4224C15.5509 19.1453 15.3877 18.7661 15.3757 18.3757C15.7714 18.387 16.1415 18.5468 16.4224 18.8276C16.6991 19.1047 16.8623 19.4839 16.8743 19.8743ZM7.125 21.375V20.6227C7.72125 20.6111 8.28038 20.3752 8.70263 19.9526C9.13613 19.5188 9.375 18.9424 9.375 18.3296V18C9.375 17.793 9.20737 17.625 9 17.625H8.67037C8.05688 17.625 7.4805 17.8639 7.04737 18.2974C6.9345 18.4102 6.8355 18.5333 6.75 18.6634C6.6645 18.5333 6.5655 18.4102 6.45263 18.2974C6.0195 17.8639 5.44312 17.625 4.82963 17.625H4.5C4.29262 17.625 4.125 17.793 4.125 18V18.3296C4.125 18.9424 4.36388 19.5188 4.79738 19.9526C5.22 20.3756 5.77875 20.6111 6.375 20.6227V21.375H2.625V16.875H10.875V21.375H7.125ZM7.12575 19.8743C7.13775 19.4839 7.30088 19.1047 7.57763 18.8276C7.8585 18.5464 8.22862 18.387 8.62425 18.3757C8.61225 18.7661 8.44912 19.1453 8.17237 19.4224C7.8915 19.7032 7.52138 19.863 7.12575 19.8743ZM6.37425 19.8743C5.97862 19.863 5.6085 19.7032 5.32762 19.4224C5.05087 19.1453 4.88775 18.7661 4.87575 18.3757C5.27137 18.387 5.6415 18.5468 5.92238 18.8276C6.19913 19.1047 6.36225 19.4839 6.37425 19.8743ZM10.875 2.625V7.875H7.125V7.12275C7.72125 7.11112 8.28038 6.87525 8.70263 6.45263C9.13613 6.01875 9.375 5.44237 9.375 4.82963V4.5C9.375 4.293 9.20737 4.125 9 4.125H8.67037C8.05688 4.125 7.4805 4.36388 7.04737 4.79738C6.9345 4.91025 6.8355 5.03325 6.75 5.16337C6.6645 5.03325 6.5655 4.91025 6.45263 4.79738C6.0195 4.36388 5.44312 4.125 4.82963 4.125H4.5C4.29262 4.125 4.125 4.293 4.125 4.5V4.82963C4.125 5.44237 4.36388 6.01875 4.79738 6.45263C5.22 6.87563 5.77875 7.11112 6.375 7.12275V7.875H2.625V2.625H10.875ZM21.375 2.625V7.875H17.625V7.12275C18.2213 7.11112 18.7804 6.87525 19.2026 6.45263C19.6361 6.01875 19.875 5.44237 19.875 4.82963V4.5C19.875 4.293 19.7074 4.125 19.5 4.125H19.1704C18.5569 4.125 17.9805 4.36388 17.5474 4.79738C17.4345 4.91025 17.3355 5.03325 17.25 5.16337C17.1645 5.03325 17.0655 4.91025 16.9526 4.79738C16.5195 4.36388 15.9431 4.125 15.3296 4.125H15C14.7926 4.125 14.625 4.293 14.625 4.5V4.82963C14.625 5.44237 14.8639 6.01875 15.2974 6.45263C15.72 6.87563 16.2788 7.11112 16.875 7.12275V7.875H13.125V2.625H21.375ZM22.875 7.875H22.125V2.625H22.875V7.875ZM22.875 16.125H1.125V15.375H22.875V16.125ZM17.625 14.625V13.8727C18.2213 13.8611 18.7804 13.6252 19.2026 13.2026C19.6361 12.7688 19.875 12.1924 19.875 11.5796V11.25C19.875 11.043 19.7074 10.875 19.5 10.875H19.1704C18.5569 10.875 17.9805 11.1139 17.5474 11.5474C17.4345 11.6602 17.3355 11.7832 17.25 11.9134C17.1645 11.7832 17.0655 11.6602 16.9526 11.5474C16.5195 11.1139 15.9431 10.875 15.3296 10.875H15C14.7926 10.875 14.625 11.043 14.625 11.25V11.5796C14.625 12.1924 14.8639 12.7688 15.2974 13.2026C15.72 13.6256 16.2788 13.8611 16.875 13.8727V14.625H13.125V10.125H21.375V14.625H17.625ZM17.6257 13.1243C17.6377 12.7339 17.8009 12.3548 18.0776 12.0776C18.3585 11.7964 18.7286 11.637 19.1243 11.6258C19.1123 12.0161 18.9491 12.3952 18.6724 12.6724C18.3915 12.9532 18.0214 13.113 17.6257 13.1243ZM16.8743 13.1243C16.4786 13.113 16.1085 12.9532 15.8276 12.6724C15.5509 12.3952 15.3877 12.0161 15.3757 11.6258C15.7714 11.637 16.1415 11.7968 16.4224 12.0776C16.6991 12.3548 16.8623 12.7339 16.8743 13.1243ZM12.375 14.625H11.625V10.125H12.375V14.625ZM10.875 14.625H7.125V13.8727C7.72125 13.8611 8.28038 13.6252 8.70263 13.2026C9.13613 12.7688 9.375 12.1924 9.375 11.5796V11.25C9.375 11.043 9.20737 10.875 9 10.875H8.67037C8.05688 10.875 7.4805 11.1139 7.04737 11.5474C6.9345 11.6602 6.8355 11.7832 6.75 11.9134C6.6645 11.7832 6.5655 11.6602 6.45263 11.5474C6.0195 11.1139 5.44312 10.875 4.82963 10.875H4.5C4.29262 10.875 4.125 11.043 4.125 11.25V11.5796C4.125 12.1924 4.36388 12.7688 4.79738 13.2026C5.22 13.6256 5.77875 13.8611 6.375 13.8727V14.625H2.625V10.125H10.875V14.625ZM7.12575 13.1243C7.13775 12.7339 7.30088 12.3548 7.57763 12.0776C7.8585 11.7964 8.22862 11.637 8.62425 11.6258C8.61225 12.0161 8.44912 12.3952 8.17237 12.6724C7.8915 12.9532 7.52138 13.113 7.12575 13.1243ZM6.37425 13.1243C5.97862 13.113 5.6085 12.9532 5.32762 12.6724C5.05087 12.3952 4.88775 12.0161 4.87575 11.6258C5.27137 11.637 5.6415 11.7968 5.92238 12.0776C6.19913 12.3548 6.36225 12.7339 6.37425 13.1243ZM1.875 14.625H1.125V10.125H1.875V14.625ZM22.125 14.625V10.125H22.875V14.625H22.125ZM22.875 9.375H1.125V8.625H22.875V9.375ZM17.6257 6.37425C17.6377 5.98387 17.8009 5.60475 18.0776 5.32762C18.3585 5.04637 18.7286 4.887 19.1243 4.87575C19.1123 5.26612 18.9491 5.64525 18.6724 5.92238C18.3915 6.20325 18.0214 6.363 17.6257 6.37425ZM16.8743 6.37425C16.4786 6.363 16.1085 6.20325 15.8276 5.92238C15.5509 5.64525 15.3877 5.26612 15.3757 4.87575C15.7714 4.887 16.1415 5.04675 16.4224 5.32762C16.6991 5.60475 16.8623 5.98387 16.8743 6.37425ZM12.375 7.875H11.625V2.625H12.375V7.875ZM7.12575 6.37425C7.13775 5.98387 7.30088 5.60475 7.57763 5.32762C7.8585 5.04637 8.22862 4.887 8.62425 4.87575C8.61225 5.26612 8.44912 5.64525 8.17237 5.92238C7.8915 6.20325 7.52138 6.363 7.12575 6.37425ZM6.37425 6.37425C5.97862 6.363 5.6085 6.20325 5.32762 5.92238C5.05087 5.64525 4.88775 5.26612 4.87575 4.87575C5.27137 4.887 5.6415 5.04675 5.92238 5.32762C6.19913 5.60475 6.36225 5.98387 6.37425 6.37425ZM1.875 7.875H1.125V2.625H1.875V7.875ZM1.125 16.875H1.875V21.375H1.125V16.875ZM11.625 16.875H12.375V21.375H11.625V16.875ZM22.125 16.875H22.875V21.375H22.125V16.875ZM1.125 1.125H22.875V1.875H21.75H12.75H11.25H2.25H1.125V1.125ZM22.875 22.875H1.125V22.125H2.25H11.25H12.75H21.75H22.875V22.875Z" fill="#353535"/>
</svg>
