<svg width="24" height="24" viewBox="0 0 24 24" fill="none" xmlns="http://www.w3.org/2000/svg">
<path d="M3.42019 4.46601C3.30858 4.392 3.1666 4.3792 3.04261 4.4324L0.242634 5.6324C0.0954471 5.69522 0.000244141 5.84001 0.000244141 6C0.000244141 6.15998 0.0954471 6.30478 0.242634 6.36759L3.04261 7.56759C3.093 7.5892 3.14663 7.59998 3.20021 7.59998C3.27741 7.59998 3.35419 7.57758 3.42019 7.53398C3.5326 7.45997 3.60019 7.33439 3.60019 7.2V4.8C3.60019 4.66561 3.5326 4.54003 3.42019 4.46601ZM2.80022 6.59325L1.41582 6.00004L2.80022 5.40647V6.59325Z" fill="#F2950A" fill-opacity="0.9"/>
<path d="M9.60004 4.57764e-05H7.60003C6.05602 4.57764e-05 4.80005 1.25606 4.80005 2.80002C4.80005 3.02081 4.97925 3.20001 5.20003 3.20001H7.20004C8.74406 3.20001 10 1.944 10 0.400029C10.0001 0.179249 9.82087 4.57764e-05 9.60004 4.57764e-05ZM7.20004 2.40004H5.64047C5.82605 1.48846 6.63445 0.80006 7.60007 0.80006H9.15965C8.97407 1.71164 8.16604 2.40004 7.20004 2.40004Z" fill="#F2950A" fill-opacity="0.9"/>
<path d="M6.00005 4.39999C5.33845 4.39999 4.80005 4.9384 4.80005 5.6C4.80005 6.26159 5.33845 6.8 6.00005 6.8C6.66164 6.8 7.20004 6.26159 7.20004 5.6C7.20004 4.9384 6.66169 4.39999 6.00005 4.39999ZM6.00005 6.00003C5.77964 6.00003 5.60006 5.82045 5.60006 5.60004C5.60006 5.37964 5.77964 5.20006 6.00005 5.20006C6.22045 5.20006 6.40003 5.37964 6.40003 5.60004C6.40003 5.82045 6.22045 6.00003 6.00005 6.00003Z" fill="#F2950A" fill-opacity="0.9"/>
<path d="M11.2002 20.4H10.4001V23.6H11.2002V20.4Z" fill="#F2950A" fill-opacity="0.9"/>
<path d="M15.2 23.2H8.80005V24H15.2V23.2Z" fill="#F2950A" fill-opacity="0.9"/>
<path d="M13.6001 20.4H12.8V23.6H13.6001V20.4Z" fill="#F2950A" fill-opacity="0.9"/>
<path d="M12 21.6H10.8V22.4H12V21.6Z" fill="#F2950A" fill-opacity="0.9"/>
<path d="M14.3999 21.6H13.2V22.4H14.3999V21.6Z" fill="#F2950A" fill-opacity="0.9"/>
<path d="M3.40108 6.85399C3.2779 6.78241 3.12551 6.78199 3.00148 6.85319L0.904292 8.05361C0.355481 8.37039 0.00907489 8.96083 0.000309284 9.60002V9.7848C-0.00372196 10.2656 0.179465 10.7188 0.516683 11.062C0.853901 11.4048 1.30428 11.596 1.78826 11.6H1.80026C2.79307 11.6 3.60026 10.7928 3.60026 9.79999V7.19998C3.60026 7.05762 3.52427 6.92562 3.40108 6.85399ZM2.80029 9.79999C2.80029 10.3516 2.35188 10.8 1.80031 10.8V11.2L1.79192 10.8C1.52473 10.7976 1.2747 10.6915 1.0871 10.5012C0.899886 10.3108 0.797886 10.0588 0.800323 9.78841V9.6056C0.805105 9.25239 0.998323 8.92319 1.3031 8.74717L2.80029 7.88997V9.79999Z" fill="#F2950A" fill-opacity="0.9"/>
<path d="M24 2.80004V2.40005H20.4C20.3996 2.40005 20.3996 2.40005 20.3988 2.40005C17.5732 2.40005 14.9616 4.04883 13.7472 6.60005L12 10.2696L9.20841 4.41042C8.69321 3.27685 7.60281 2.50721 6.35321 2.40085C5.45922 2.34404 4.60164 2.63963 3.93203 3.23044C3.26242 3.82163 2.86281 4.63805 2.80685 5.52844C2.80206 5.60002 2.80005 5.67202 2.80005 5.74402V11.8004C2.80286 16.76 6.83963 20.7976 11.8 20.8C16.6208 20.8 20.534 16.5032 20.7872 12.7792C22.5908 12.5856 24 11.0544 24 9.20001V8.80003H22.6604C23.4769 8.13961 24 7.12964 24 6.00005V5.60006H22.6604C23.4768 4.93964 24 3.92963 24 2.80004ZM23.1716 6.40003C22.9768 7.75523 21.8084 8.80003 20.4 8.80003V9.60004H23.1716C22.9768 10.9552 21.8084 12 20.4 12H20V12.4C20 15.8212 16.216 20 11.8 20C7.28082 19.9976 3.60203 16.3192 3.60006 11.8V5.74402C3.60006 5.68922 3.60166 5.6348 3.60527 5.5792C3.64769 4.90078 3.95167 4.28002 4.46125 3.83039C4.93084 3.4164 5.52245 3.1936 6.13604 3.1936C6.18845 3.1936 6.24123 3.19519 6.29443 3.19838C7.24684 3.27957 8.08444 3.8708 8.48321 4.74797L12.0004 12.13L14.4696 6.94397C15.5524 4.66955 17.8796 3.19997 20.3988 3.19997C20.3992 3.19997 20.3996 3.19997 20.4 3.19997H23.1716C22.9768 4.55517 21.8084 5.59997 20.4 5.59997V6.39998H23.1716V6.40003Z" fill="#F2950A" fill-opacity="0.9"/>
<path d="M13.2 12V12.8H17.9008C17.532 13.9664 16.4344 14.7985 15.1792 14.8001L15.1716 15.6001C15.1745 15.6001 15.1768 15.6001 15.18 15.6001H16.3008C15.932 16.7677 14.8324 17.6001 13.5756 17.6001C13.5744 17.6001 13.5732 17.6001 13.572 17.6001H12C9.13279 17.6001 6.80001 15.2673 6.80001 12.4001V12.0001H6V12.4001C6 15.7085 8.6916 18.4001 12 18.4001H13.5716C13.5732 18.4001 13.5744 18.4001 13.576 18.4001C15.3864 18.4001 16.9428 17.0489 17.196 15.2561L17.238 14.9573C18.0604 14.3921 18.6484 13.4989 18.796 12.4561L18.8604 12.0001H13.2V12Z" fill="#F2950A" fill-opacity="0.9"/>
</svg>
