<svg width="24" height="24" viewBox="0 0 24 24" fill="none" xmlns="http://www.w3.org/2000/svg">
<path fill-rule="evenodd" clip-rule="evenodd" d="M5 5.31719C4.44772 5.31719 4 5.73898 4 6.25928V19.4485C4 19.9688 4.44772 20.3906 5 20.3906H19C19.5523 20.3906 20 19.9688 20 19.4485V6.25928C20 5.73898 19.5523 5.31719 19 5.31719H5ZM2 6.25928C2 4.69837 3.34315 3.43301 5 3.43301H19C20.6569 3.43301 22 4.69837 22 6.25928V19.4485C22 21.0094 20.6569 22.2748 19 22.2748H5C3.34315 22.2748 2 21.0094 2 19.4485V6.25928Z" fill="#353535"/>
<path fill-rule="evenodd" clip-rule="evenodd" d="M16 1.54883C16.5523 1.54883 17 1.97062 17 2.49092V6.25928C17 6.77958 16.5523 7.20137 16 7.20137C15.4477 7.20137 15 6.77958 15 6.25928V2.49092C15 1.97062 15.4477 1.54883 16 1.54883Z" fill="#353535"/>
<path fill-rule="evenodd" clip-rule="evenodd" d="M8 1.54883C8.55228 1.54883 9 1.97062 9 2.49092V6.25928C9 6.77958 8.55228 7.20137 8 7.20137C7.44772 7.20137 7 6.77958 7 6.25928V2.49092C7 1.97062 7.44772 1.54883 8 1.54883Z" fill="#353535"/>
<path fill-rule="evenodd" clip-rule="evenodd" d="M2 10.0276C2 9.50734 2.44772 9.08555 3 9.08555H21C21.5523 9.08555 22 9.50734 22 10.0276C22 10.5479 21.5523 10.9697 21 10.9697H3C2.44772 10.9697 2 10.5479 2 10.0276Z" fill="#353535"/>
</svg>
