<svg width="16" height="16" viewBox="0 0 16 16" fill="none" xmlns="http://www.w3.org/2000/svg">
<g clip-path="url(#clip0)">
<path d="M12.0763 10.2944C11.9342 10.1523 11.7237 10.1131 11.54 10.1947C10.3702 10.714 9.65711 11.0974 9.42052 11.3342C9.18477 11.5698 9.03992 11.8719 9.01267 12.185C8.99524 12.3852 9.0288 12.5799 9.10645 12.7516L8.36227 13.4948V10.892H8.36217L9.61802 9.63791C9.76139 9.70256 9.91874 9.73462 10.0796 9.73459C10.4145 9.73459 10.7647 9.59584 11.0364 9.32419C11.2731 9.08772 11.6566 8.37459 12.176 7.20462C12.2575 7.02091 12.2184 6.81034 12.0762 6.66825C11.934 6.52609 11.7235 6.48703 11.5399 6.56859C10.3701 7.08784 9.65702 7.47125 9.42039 7.70806C9.18464 7.94362 9.03986 8.24575 9.01258 8.55884C8.99514 8.75903 9.02864 8.95372 9.10636 9.12544L8.36214 9.86859V7.31653L9.61792 6.06275C9.7613 6.12741 9.91858 6.15947 10.0795 6.15947C10.4144 6.15947 10.7647 6.02062 11.0363 5.74869C11.2731 5.51222 11.6565 4.79909 12.1759 3.62912C12.2575 3.44541 12.2183 3.23484 12.0762 3.09275C11.934 2.95062 11.7234 2.91153 11.5398 2.99309C10.37 3.51234 9.65699 3.89575 9.42039 4.13256C9.18461 4.36812 9.0398 4.67031 9.01255 4.98353C8.99511 5.18381 9.02861 5.37853 9.10633 5.55025L8.36211 6.29328V3.83762C8.81521 3.66606 9.14277 3.18222 9.14277 2.61325C9.14277 2.27762 8.90961 1.50231 8.44983 0.308844C8.37764 0.121219 8.20108 0 8.00008 0C7.79908 0 7.62255 0.121219 7.55033 0.30875C7.09052 1.50228 6.85736 2.27759 6.85736 2.61319C6.85736 3.18216 7.18489 3.666 7.63802 3.83756V6.29322L6.89383 5.55022C6.97149 5.37853 7.00502 5.18375 6.98758 4.9835C6.96033 4.67031 6.81552 4.36812 6.57974 4.13253C6.34314 3.89569 5.63005 3.51234 4.46036 2.99306C4.27674 2.9115 4.06614 2.95059 3.92402 3.09272C3.78186 3.23484 3.7427 3.44537 3.82427 3.62909C4.34367 4.79903 4.72711 5.51216 4.96358 5.74834C5.23539 6.02044 5.58574 6.15937 5.92077 6.15937C6.08158 6.15937 6.23886 6.12734 6.38224 6.06266L7.63808 7.31647V9.86853L6.89389 9.12537C6.97155 8.95372 7.00511 8.759 6.98767 8.55875C6.96042 8.24569 6.81561 7.94356 6.57986 7.70797C6.34324 7.47116 5.63017 7.08775 4.46042 6.5685C4.27683 6.48694 4.0662 6.52603 3.92408 6.66816C3.78192 6.81028 3.74274 7.02081 3.82433 7.20453C4.34374 8.37447 4.72717 9.08759 4.96377 9.32394C5.23561 9.59575 5.58574 9.7345 5.9207 9.73447C6.08152 9.73447 6.23883 9.70244 6.38224 9.63775L7.63814 10.8919V13.4947L6.89395 12.7516C6.97161 12.5799 7.00514 12.3852 6.9877 12.185C6.96045 11.8719 6.81561 11.5697 6.57986 11.3342C6.34327 11.0973 5.63017 10.714 4.46049 10.1947C4.27692 10.1132 4.06627 10.1523 3.92414 10.2944C3.78202 10.4365 3.7428 10.647 3.82439 10.8308C4.34383 12.0008 4.72724 12.7138 4.9637 12.95C5.19936 13.1859 5.50158 13.3308 5.81477 13.358C5.84952 13.361 5.88408 13.3625 5.91839 13.3625C6.08217 13.3625 6.24014 13.3285 6.3823 13.264L7.63817 14.5182V15.2757H5.67027C5.47033 15.2757 5.3082 15.4378 5.3082 15.6378C5.3082 15.8378 5.47033 15.9999 5.67027 15.9999H9.22527C9.42521 15.9999 9.58733 15.8378 9.58733 15.6378C9.58733 15.4378 9.42521 15.2757 9.22527 15.2757H8.36233V14.5182L9.61821 13.264C9.76033 13.3284 9.9183 13.3625 10.0821 13.3625C10.1164 13.3625 10.151 13.361 10.1857 13.358C10.4989 13.3308 10.8012 13.1859 11.0365 12.9503C11.2733 12.7139 11.6567 12.0007 12.1761 10.8308C12.2576 10.6471 12.2185 10.4365 12.0763 10.2944ZM9.73402 8.62162C9.74636 8.48012 9.81867 8.33378 9.93239 8.22016C9.93249 8.22006 9.93261 8.21997 9.93271 8.21987C10.0317 8.12078 10.4343 7.87922 11.2464 7.49816C10.8652 8.31031 10.6237 8.71284 10.5245 8.81197C10.3071 9.02931 9.98774 9.07734 9.82721 8.917C9.82721 8.917 9.8272 8.917 9.82717 8.91697C9.73202 8.82181 9.72796 8.69112 9.73402 8.62162ZM9.73405 5.04628C9.74636 4.90462 9.81867 4.75825 9.93242 4.64462C9.93252 4.64453 9.93264 4.64444 9.93274 4.64434C10.0317 4.54525 10.4344 4.30369 11.2464 3.92262C10.8652 4.73478 10.6237 5.13737 10.5244 5.23656C10.3071 5.45403 9.98774 5.50219 9.82717 5.34181C9.73202 5.24666 9.72795 5.11581 9.73405 5.04628ZM6.17324 5.34162C6.01242 5.50222 5.69308 5.454 5.47558 5.23625C5.37652 5.13728 5.13502 4.73469 4.7538 3.92259C5.56595 4.30372 5.96849 4.54522 6.06745 4.64431C6.06755 4.64441 6.06767 4.6445 6.06777 4.64459C6.18152 4.75822 6.25383 4.90459 6.26614 5.04625C6.27224 5.11581 6.2682 5.24666 6.17324 5.34162ZM6.17317 8.91681C6.01252 9.07734 5.69302 9.02931 5.47555 8.81181C5.37649 8.71284 5.13499 8.31025 4.75377 7.49816C5.56592 7.87928 5.96845 8.12078 6.06742 8.21987C6.06752 8.21997 6.06764 8.22006 6.06774 8.22016C6.18149 8.33378 6.2538 8.48012 6.26611 8.62162C6.2722 8.69109 6.26814 8.82181 6.17317 8.91681ZM6.17308 12.5431C6.17299 12.5432 6.17289 12.5432 6.1728 12.5433C6.17277 12.5433 6.17274 12.5434 6.1727 12.5434C6.07745 12.6385 5.94686 12.6427 5.87733 12.6366C5.73583 12.6243 5.58952 12.552 5.47558 12.438C5.37652 12.339 5.13502 11.9364 4.7538 11.1243C5.56595 11.5054 5.96849 11.7469 6.06745 11.846C6.06755 11.8461 6.06767 11.8462 6.06777 11.8463C6.18155 11.9599 6.25383 12.1063 6.26614 12.2478C6.27217 12.3172 6.26811 12.4479 6.17308 12.5431ZM8.00008 3.18025C7.7732 3.18025 7.58152 2.92059 7.58152 2.61322C7.58155 2.47256 7.69555 2.01662 8.00008 1.1735C8.30467 2.01675 8.41864 2.47256 8.41864 2.61322C8.41864 2.92059 8.22695 3.18025 8.00008 3.18025ZM10.5244 12.4383C10.4107 12.5521 10.2644 12.6243 10.1229 12.6367C10.0533 12.6427 9.92255 12.6386 9.82717 12.5432C9.73202 12.4481 9.72796 12.3173 9.73402 12.2479C9.74636 12.1064 9.81867 11.96 9.93239 11.8464C9.93249 11.8463 9.93261 11.8462 9.93271 11.8461C10.0317 11.747 10.4343 11.5055 11.2464 11.1244C10.8652 11.9365 10.6237 12.3391 10.5244 12.4383Z" fill="#F2950A"/>
<path d="M10.3297 15.2758H10.2205C10.0206 15.2758 9.8584 15.4379 9.8584 15.6379C9.8584 15.8379 10.0205 16 10.2205 16H10.3297C10.5297 16 10.6918 15.8379 10.6918 15.6379C10.6918 15.4379 10.5297 15.2758 10.3297 15.2758Z" fill="#F2950A"/>
</g>
<defs>
<clipPath id="clip0">
<rect width="16" height="16" fill="white"/>
</clipPath>
</defs>
</svg>
