<svg width="24" height="24" viewBox="0 0 24 24" fill="none" xmlns="http://www.w3.org/2000/svg">
<path d="M8.62505 14.3477V21.892H5.06255C4.96309 21.892 4.86771 21.9292 4.79738 21.9955C4.72706 22.0618 4.68755 22.1516 4.68755 22.2453C4.68755 22.339 4.72706 22.4289 4.79738 22.4951C4.86771 22.5614 4.96309 22.5986 5.06255 22.5986H12.7969C12.8964 22.5986 12.9918 22.5614 13.0621 22.4951C13.1324 22.4289 13.1719 22.339 13.1719 22.2453C13.1719 22.1516 13.1324 22.0618 13.0621 21.9955C12.9918 21.9292 12.8964 21.892 12.7969 21.892H9.37505V19.439L9.50827 19.4337C11.5682 19.3682 13.2793 17.7534 13.3271 15.8333L13.3467 15.3655C13.3487 15.3166 13.34 15.2679 13.321 15.2223C13.3021 15.1768 13.2733 15.1355 13.2366 15.1009C13.1998 15.0664 13.1559 15.0394 13.1075 15.0216C13.0592 15.0039 13.0074 14.9958 12.9555 14.9978L12.4627 15.0173C11.2048 15.0577 10.0782 15.6885 9.37505 16.6159V13.6821C9.37505 13.6783 9.37036 13.6746 9.37036 13.6708C9.30127 11.6531 7.50047 9.95244 5.35884 9.88713C5.35481 9.88713 5.34853 9.88037 5.3445 9.88037H5.01099C4.91059 9.88355 4.81553 9.92375 4.74627 9.9923C4.67701 10.0608 4.63909 10.1523 4.64067 10.2469V10.561C4.64067 10.5648 4.64297 10.5686 4.64311 10.5724C4.71188 12.5806 6.4688 14.268 8.62505 14.3477ZM9.38662 18.6409C9.44227 17.0853 10.8315 15.7765 12.4864 15.7233L12.5792 15.7197L12.5753 15.8071C12.5753 15.8094 12.5753 15.8116 12.5753 15.814C12.5383 17.3674 11.1491 18.6744 9.47564 18.7276L9.38278 18.7312L9.38662 18.6409ZM7.6058 11.5518C8.21639 12.127 8.57302 12.867 8.61389 13.641C7.79236 13.6025 7.00683 13.2665 6.39623 12.6913C5.78564 12.116 5.42897 11.376 5.38814 10.602C6.20963 10.6405 6.9952 10.9765 7.6058 11.5518Z" fill="#353535"/>
<path d="M14.6144 7.76814C15.0473 7.76814 15.4705 7.64719 15.8305 7.42059C16.1905 7.19398 16.4711 6.87189 16.6368 6.49506C16.8025 6.11822 16.8458 5.70356 16.7614 5.30352C16.6769 4.90347 16.4684 4.536 16.1623 4.24759C15.8561 3.95917 15.4661 3.76276 15.0414 3.68318C14.6168 3.60361 14.1766 3.64445 13.7766 3.80054C13.3766 3.95663 13.0348 4.22096 12.7942 4.5601C12.5537 4.89924 12.4253 5.29797 12.4253 5.70585C12.4259 6.25263 12.6567 6.77684 13.0671 7.16347C13.4775 7.5501 14.034 7.76756 14.6144 7.76814ZM14.6144 4.35012C14.899 4.35012 15.1772 4.42964 15.4139 4.5786C15.6505 4.72757 15.835 4.93931 15.9439 5.18704C16.0528 5.43476 16.0813 5.70735 16.0258 5.97034C15.9702 6.23332 15.8332 6.47489 15.6319 6.66449C15.4307 6.8541 15.1743 6.98322 14.8951 7.03553C14.616 7.08784 14.3266 7.06099 14.0637 6.95838C13.8007 6.85577 13.5759 6.682 13.4178 6.45905C13.2597 6.2361 13.1753 5.97399 13.1753 5.70585C13.1758 5.34644 13.3275 5.00188 13.5973 4.74776C13.8671 4.49364 14.2329 4.35072 14.6144 4.35034V4.35012Z" fill="#353535"/>
<path d="M14.25 8.41993V9.8272C14.25 9.92089 14.2895 10.0108 14.3598 10.077C14.4302 10.1433 14.5255 10.1805 14.625 10.1805C14.7245 10.1805 14.8198 10.1433 14.8902 10.077C14.9605 10.0108 15 9.92089 15 9.8272V8.41993C15 8.32624 14.9605 8.23638 14.8902 8.17012C14.8198 8.10387 14.7245 8.06665 14.625 8.06665C14.5255 8.06665 14.4302 8.10387 14.3598 8.17012C14.2895 8.23638 14.25 8.32624 14.25 8.41993Z" fill="#353535"/>
<path d="M14.625 3.34512C14.7245 3.34512 14.8198 3.3079 14.8902 3.24164C14.9605 3.17539 15 3.08553 15 2.99184V1.58449C15 1.49079 14.9605 1.40093 14.8902 1.33468C14.8198 1.26842 14.7245 1.2312 14.625 1.2312C14.5255 1.2312 14.4302 1.26842 14.3598 1.33468C14.2895 1.40093 14.25 1.49079 14.25 1.58449V2.99184C14.25 3.08553 14.2895 3.17539 14.3598 3.24164C14.4302 3.3079 14.5255 3.34512 14.625 3.34512Z" fill="#353535"/>
<path d="M10.2393 6.03835H11.7331C11.8326 6.03835 11.928 6.00113 11.9983 5.93488C12.0686 5.86863 12.1081 5.77877 12.1081 5.68507C12.1081 5.59137 12.0686 5.50152 11.9983 5.43526C11.928 5.36901 11.8326 5.33179 11.7331 5.33179H10.2393C10.1398 5.33179 10.0444 5.36901 9.97409 5.43526C9.90377 5.50152 9.86426 5.59137 9.86426 5.68507C9.86426 5.77877 9.90377 5.86863 9.97409 5.93488C10.0444 6.00113 10.1398 6.03835 10.2393 6.03835Z" fill="#353535"/>
<path d="M17.1201 5.68507C17.1201 5.77877 17.1596 5.86863 17.23 5.93488C17.3003 6.00113 17.3957 6.03835 17.4951 6.03835H18.989C19.0885 6.03835 19.1839 6.00113 19.2542 5.93488C19.3245 5.86863 19.364 5.77877 19.364 5.68507C19.364 5.59137 19.3245 5.50152 19.2542 5.43526C19.1839 5.36901 19.0885 5.33179 18.989 5.33179H17.4951C17.3957 5.33179 17.3003 5.36901 17.23 5.43526C17.1596 5.50152 17.1201 5.59137 17.1201 5.68507Z" fill="#353535"/>
<path d="M12.2901 7.39624L11.2764 8.35126C11.2409 8.38393 11.2127 8.4229 11.1933 8.46592C11.174 8.50894 11.1639 8.55515 11.1636 8.60188C11.1633 8.6486 11.1729 8.69492 11.1917 8.73814C11.2106 8.78136 11.2383 8.82062 11.2734 8.85366C11.3085 8.8867 11.3502 8.91286 11.396 8.93062C11.4419 8.94838 11.4911 8.95739 11.5407 8.95713C11.5903 8.95687 11.6393 8.94734 11.685 8.9291C11.7306 8.91086 11.772 8.88426 11.8067 8.85085L12.8204 7.89588C12.8555 7.86315 12.8835 7.82419 12.9026 7.78124C12.9217 7.73829 12.9317 7.69221 12.9318 7.64563C12.932 7.59906 12.9223 7.55292 12.9035 7.50986C12.8847 7.4668 12.857 7.42768 12.822 7.39475C12.787 7.36181 12.7455 7.33571 12.6998 7.31795C12.6541 7.30019 12.6051 7.29112 12.5557 7.29126C12.5063 7.2914 12.4573 7.30075 12.4118 7.31876C12.3662 7.33678 12.3248 7.36311 12.2901 7.39624Z" fill="#353535"/>
<path d="M16.6733 4.11907C16.7225 4.11913 16.7713 4.11003 16.8168 4.09227C16.8623 4.07451 16.9036 4.04846 16.9384 4.0156L17.9522 3.06063C17.987 3.02782 18.0146 2.98888 18.0335 2.94601C18.0523 2.90315 18.062 2.85721 18.062 2.81081C18.062 2.76442 18.0523 2.71848 18.0335 2.67561C18.0146 2.63275 17.987 2.5938 17.9522 2.561C17.9174 2.52819 17.876 2.50217 17.8305 2.48441C17.785 2.46666 17.7363 2.45752 17.687 2.45752C17.6378 2.45752 17.589 2.46666 17.5435 2.48441C17.498 2.50217 17.4567 2.52819 17.4219 2.561L16.4082 3.51597C16.3557 3.56537 16.32 3.62831 16.3056 3.69684C16.2911 3.76536 16.2985 3.83639 16.3269 3.90094C16.3552 3.96549 16.4033 4.02067 16.4649 4.0595C16.5266 4.09832 16.5991 4.11906 16.6733 4.11907Z" fill="#353535"/>
<path d="M12.2897 4.01564C12.3244 4.04877 12.3658 4.0751 12.4114 4.09312C12.457 4.11114 12.5059 4.12048 12.5553 4.12062C12.6048 4.12076 12.6537 4.11169 12.6994 4.09393C12.7451 4.07617 12.7867 4.05007 12.8216 4.01714C12.8566 3.98421 12.8843 3.94508 12.9031 3.90203C12.922 3.85897 12.9316 3.81283 12.9314 3.76625C12.9313 3.71968 12.9214 3.67359 12.9022 3.63065C12.8831 3.5877 12.8552 3.54874 12.82 3.51601L11.8063 2.56104C11.7716 2.52791 11.7302 2.50158 11.6846 2.48356C11.639 2.46554 11.5901 2.4562 11.5407 2.45606C11.4912 2.45592 11.4423 2.46499 11.3966 2.48275C11.3509 2.50051 11.3093 2.52661 11.2744 2.55954C11.2394 2.59247 11.2117 2.6316 11.1929 2.67465C11.174 2.71771 11.1644 2.76385 11.1646 2.81043C11.1647 2.857 11.1746 2.90309 11.1938 2.94603C11.2129 2.98898 11.2408 3.02794 11.276 3.06067L12.2897 4.01564Z" fill="#353535"/>
<path d="M16.4082 7.39621C16.3734 7.42901 16.3457 7.46796 16.3269 7.51082C16.308 7.55369 16.2983 7.59963 16.2983 7.64602C16.2983 7.69242 16.308 7.73836 16.3269 7.78122C16.3457 7.82409 16.3734 7.86303 16.4082 7.89584L17.4219 8.85081C17.4566 8.88395 17.498 8.91028 17.5435 8.9283C17.5891 8.94632 17.638 8.95568 17.6875 8.95582C17.7369 8.95596 17.7859 8.9469 17.8316 8.92914C17.8773 8.91138 17.9188 8.88529 17.9538 8.85236C17.9887 8.81943 18.0165 8.78031 18.0353 8.73725C18.0542 8.6942 18.0638 8.64805 18.0636 8.60148C18.0635 8.5549 18.0536 8.50882 18.0344 8.46587C18.0153 8.42292 17.9874 8.38396 17.9522 8.35122L16.9385 7.39621C16.9037 7.3634 16.8624 7.33737 16.8169 7.31962C16.7714 7.30186 16.7226 7.29272 16.6734 7.29272C16.6241 7.29272 16.5753 7.30186 16.5298 7.31962C16.4843 7.33737 16.443 7.3634 16.4082 7.39621Z" fill="#353535"/>
</svg>
