<svg width="16" height="16" viewBox="0 0 16 16" fill="none" xmlns="http://www.w3.org/2000/svg">
<path d="M12.859 16C12.1933 16 11.3892 15.8331 10.505 15.4995C8.5666 14.7687 6.45755 13.3243 4.56646 11.4332C2.67484 9.54154 1.23042 7.43195 0.49906 5.4935C-0.165566 3.73103 -0.167181 2.28446 0.495293 1.62253C0.590547 1.52727 0.687415 1.42502 0.787513 1.31954C1.39187 0.683978 2.07479 -0.0312349 2.97997 0.00105458C3.6037 0.0268862 4.20805 0.414361 4.82693 1.18447C6.6556 3.45872 5.83114 4.26919 4.87698 5.20882L4.70854 5.37565C4.55247 5.53171 4.25756 6.25446 7.00109 8.99799C7.89659 9.89349 8.66024 10.549 9.27051 10.9456C9.65476 11.1953 10.342 11.5731 10.624 11.2911L10.7935 11.12C11.732 10.168 12.5425 9.34618 14.8152 11.1732C15.5853 11.7921 15.9722 12.3959 15.998 13.0207C16.0352 13.9254 15.3146 14.6099 14.6785 15.2137C14.5735 15.3138 14.4713 15.4107 14.376 15.5054C14.0472 15.8348 13.5214 16 12.859 16ZM2.91539 0.538137C2.27229 0.538137 1.69162 1.14949 1.17768 1.69034C1.07435 1.79904 0.974254 1.90452 0.875771 2.00301C0.382279 2.49596 0.432328 3.79131 1.00278 5.30407C1.70776 7.17256 3.10859 9.21433 4.94748 11.0532C6.78583 12.891 8.82653 14.2919 10.6956 14.9963C12.2083 15.5678 13.5037 15.6163 13.9961 15.1239C14.0946 15.0254 14.2 14.9253 14.3088 14.8225C14.8614 14.2972 15.4884 13.702 15.461 13.0417C15.4421 12.5881 15.1117 12.0999 14.4788 11.5914C12.585 10.0684 12.0555 10.606 11.1772 11.4967L11.005 11.6705C10.5852 12.0908 9.90339 11.9977 8.97775 11.396C8.33573 10.9784 7.54248 10.2993 6.62115 9.3774C4.3442 7.10098 3.61608 5.70769 4.3286 4.99355L4.50027 4.82403C5.39308 3.94576 5.93177 3.41567 4.40825 1.52082C3.89861 0.888479 3.41104 0.558049 2.95737 0.538675C2.94338 0.538137 2.92938 0.538137 2.91539 0.538137Z" fill="#757575"/>
</svg>
