<svg width="20" height="20" viewBox="0 0 20 20" fill="none" xmlns="http://www.w3.org/2000/svg">
<path fill-rule="evenodd" clip-rule="evenodd" d="M4.16666 3.33329C3.70642 3.33329 3.33332 3.70639 3.33332 4.16663V15.8333C3.33332 16.2935 3.70642 16.6666 4.16666 16.6666H15.8333C16.2936 16.6666 16.6667 16.2935 16.6667 15.8333V4.16663C16.6667 3.70639 16.2936 3.33329 15.8333 3.33329H4.16666ZM1.66666 4.16663C1.66666 2.78591 2.78594 1.66663 4.16666 1.66663H15.8333C17.214 1.66663 18.3333 2.78591 18.3333 4.16663V15.8333C18.3333 17.214 17.214 18.3333 15.8333 18.3333H4.16666C2.78594 18.3333 1.66666 17.214 1.66666 15.8333V4.16663Z" fill="#F2950A"/>
<path fill-rule="evenodd" clip-rule="evenodd" d="M9.99999 5.83329C10.4602 5.83329 10.8333 6.20639 10.8333 6.66663V13.3333C10.8333 13.7935 10.4602 14.1666 9.99999 14.1666C9.53975 14.1666 9.16666 13.7935 9.16666 13.3333V6.66663C9.16666 6.20639 9.53975 5.83329 9.99999 5.83329Z" fill="#F2950A"/>
<path fill-rule="evenodd" clip-rule="evenodd" d="M5.83332 9.99996C5.83332 9.53972 6.20642 9.16663 6.66666 9.16663H13.3333C13.7936 9.16663 14.1667 9.53972 14.1667 9.99996C14.1667 10.4602 13.7936 10.8333 13.3333 10.8333H6.66666C6.20642 10.8333 5.83332 10.4602 5.83332 9.99996Z" fill="#F2950A"/>
</svg>
