<svg width="24" height="24" viewBox="0 0 24 24" fill="none" xmlns="http://www.w3.org/2000/svg">
<path d="M23.9089 14.3522L15.6484 7.95685C16.3627 6.88898 16.9064 5.77588 16.9064 4.86127C16.9064 2.18079 14.7256 0 12.0451 0C9.36461 0 7.18382 2.18079 7.18382 4.86127C7.18382 5.77588 7.72746 6.88879 8.44176 7.95685L0.18132 14.3522C0.00205994 14.4908 0.00205994 14.7704 0.18132 14.9092L11.8296 23.9271C11.955 24.0242 12.1352 24.0244 12.2608 23.9271L21.0784 17.1006C21.2322 16.9814 21.2602 16.7602 21.1412 16.6064C21.022 16.4526 20.8008 16.4244 20.647 16.5434L17.9922 18.5988C17.9682 18.5533 12.6407 14.6307 12.6407 14.6307C12.6407 14.6307 17.9682 10.7078 17.9922 10.6624L23.1178 14.6307L21.9956 15.4995C21.8418 15.6185 21.8136 15.8397 21.9326 15.9937C22.0502 16.1453 22.275 16.1741 22.4268 16.0565L23.9089 14.9092C24.0881 14.7704 24.0881 14.491 23.9089 14.3522ZM12.0451 0.70459C14.3372 0.70459 16.2018 2.56915 16.2018 4.86127C16.2018 6.66248 13.3988 9.79962 12.0451 11.1345C10.6914 9.79999 7.88841 6.66376 7.88841 4.86127C7.88841 2.56915 9.75316 0.70459 12.0451 0.70459ZM6.09801 10.6624C6.12218 10.7078 11.4494 14.6307 11.4494 14.6307C11.4494 14.6307 6.12218 18.5533 6.09801 18.5989L0.972336 14.6307L6.09801 10.6624ZM17.4418 19.025L12.0451 23.2031L6.64842 19.025L12.0451 15.0674L17.4418 19.025ZM12.0451 14.1938L6.64842 10.2363L8.84679 8.53436C10.1254 10.2801 11.6924 11.7757 11.8028 11.8804C11.9369 12.0075 12.1533 12.0075 12.2875 11.8804C12.3979 11.7757 13.9648 10.2801 15.2434 8.53436L17.4418 10.2363L12.0451 14.1938Z" fill="#353535"/>
<path d="M15.4035 4.86127C15.4035 3.00952 13.8969 1.50293 12.0452 1.50293C10.1934 1.50293 8.68701 3.00952 8.68701 4.86127C8.68701 6.71302 10.1934 8.21943 12.0452 8.21943C13.8969 8.21943 15.4035 6.71302 15.4035 4.86127ZM9.39142 4.86127C9.39142 3.39789 10.582 2.20752 12.0452 2.20752C13.5084 2.20752 14.6989 3.39789 14.6989 4.86127C14.6989 6.32447 13.5084 7.51502 12.0452 7.51502C10.582 7.51502 9.39142 6.32447 9.39142 4.86127Z" fill="#353535"/>
<path d="M12.395 6.73895V6.33978H12.4185C12.82 6.33978 13.1465 6.01312 13.1465 5.61175V5.23602C13.1465 4.83447 12.82 4.50799 12.4185 4.50799H11.667C11.654 4.50799 11.6436 4.49737 11.6436 4.48456V4.10864C11.6436 4.09582 11.654 4.0852 11.667 4.0852H12.7944C12.9888 4.0852 13.1465 3.92755 13.1465 3.73291C13.1465 3.53845 12.9888 3.3808 12.7944 3.3808H12.395V2.98145C12.395 2.78699 12.2374 2.62915 12.0427 2.62915C11.8483 2.62915 11.6906 2.78699 11.6906 2.98145V3.3808H11.667C11.2656 3.3808 10.939 3.70727 10.939 4.10864V4.48456C10.939 4.88592 11.2656 5.2124 11.667 5.2124H12.4185C12.4315 5.2124 12.4421 5.22302 12.4421 5.23602V5.61175C12.4421 5.62457 12.4315 5.63519 12.4185 5.63519H11.2913C11.0968 5.63519 10.939 5.79285 10.939 5.98749C10.939 6.18213 11.0968 6.33978 11.2913 6.33978H11.6906V6.73895C11.6906 6.93359 11.8483 7.09125 12.0427 7.09125C12.2374 7.09125 12.395 6.93359 12.395 6.73895Z" fill="#353535"/>
</svg>
