<svg width="16" height="16" viewBox="0 0 16 16" fill="none" xmlns="http://www.w3.org/2000/svg">
<g clip-path="url(#clip0)">
<path d="M16 6.70968H15.4201L14.5558 7.16444C14.4585 7.11076 14.3574 7.06527 14.2482 7.03793L13.161 6.76588V6.64226C13.642 6.30658 13.9355 5.75202 13.9355 5.16129V4.71018C13.9355 3.70766 13.1499 2.8687 12.1845 2.83947C12.1355 2.83821 12.0872 2.83997 12.0387 2.84236L12.3206 2.18246L10.954 0.81628L10.1484 1.3406C9.84236 1.16822 9.51865 1.03402 9.18246 0.939894L8.98349 0H7.01676L6.81779 0.940146C6.4816 1.03427 6.15764 1.16847 5.85181 1.34085L5.04624 0.816532L3.68082 2.18196L3.95791 2.84236C3.94733 2.84186 3.93725 2.83997 3.92666 2.83972C3.43246 2.82535 2.96699 3.00567 2.61341 3.34892C2.25932 3.69191 2.06452 4.15222 2.06452 4.64516V5.16129C2.06452 5.75202 2.35774 6.30633 2.83871 6.64201V6.76588L2.12954 6.94317L0.844128 6.19355H0V11.541L2.53881 12.3871H3.03327L3.09501 12.1709L3.87324 12.638C3.88596 13.0611 4.2253 13.4016 4.64806 13.4165C4.66293 13.8374 5.00126 14.1758 5.42225 14.1906C5.43712 14.6116 5.77545 14.95 6.19645 14.9648C6.21182 15.3957 6.56464 15.7419 6.99899 15.7419C7.16028 15.7419 7.31842 15.6917 7.45136 15.6021L7.67994 15.8039C7.82321 15.9301 8.00769 16 8.19922 16H8.24698C8.67641 16 9.02583 15.6528 9.03125 15.2248C9.45602 15.2194 9.80002 14.8754 9.80544 14.4506C10.2305 14.4452 10.5747 14.1007 10.5796 13.6757C11.0086 13.6656 11.3548 13.3151 11.3548 12.8838C11.3548 12.8579 11.3536 12.8323 11.3509 12.8065L16 10.4821V6.70968ZM13.4194 4.71018V5.16129C13.4194 5.61933 13.1719 6.04725 12.7734 6.27797L12.6444 6.35257L12.6454 7.16923L13.9347 7.49131L11.0968 8.985V8.28982C11.0968 7.94292 10.9567 7.62525 10.7272 7.3905L11.6129 7.16923V6.35194L11.4841 6.27747C11.0859 6.04725 10.8387 5.61933 10.8387 5.16129V4.64516C10.8387 4.29322 10.9778 3.96409 11.2307 3.719C11.4834 3.47404 11.8185 3.34199 12.169 3.35559C12.8584 3.37626 13.4194 3.984 13.4194 4.71018ZM8.38911 8.78213L7.22089 8.40877C6.68851 8.23816 6.11227 8.2127 5.56729 8.33342L5.41935 8.36618V8.28982C5.41935 7.93397 5.66066 7.625 6.00567 7.53856L7.48387 7.16923V6.35194L7.35509 6.27747C6.9569 6.04725 6.70968 5.61933 6.70968 5.16129V4.64516C6.70968 4.29322 6.84879 3.96409 7.10169 3.719C7.35433 3.47404 7.69166 3.34199 8.03994 3.35559C8.72933 3.37626 9.29032 3.984 9.29032 4.71018V5.16129C9.29032 5.61933 9.04284 6.04725 8.64441 6.27797L8.51537 6.35257L8.51638 7.16923L9.99433 7.53856C10.3393 7.625 10.5806 7.93397 10.5806 8.28982V9.2568L10.5169 9.29032H10.3587L8.77218 8.83695C8.64718 8.80154 8.5184 8.78705 8.38911 8.78213ZM5.47719 3.8624C5.96182 2.92339 6.93725 2.32258 8 2.32258C9.05267 2.32258 10.0239 2.91532 10.5122 3.84161C10.3894 4.08795 10.3226 4.36076 10.3226 4.64516V5.16129C10.3226 5.75202 10.6158 6.30633 11.0968 6.64201V6.76588L10.0645 7.02432L9.03201 6.76588V6.64226C9.51298 6.30658 9.80645 5.75202 9.80645 5.16129V4.71018C9.80645 3.70766 9.02092 2.8687 8.05544 2.83947C7.56149 2.82497 7.09577 3.00542 6.74219 3.34866C6.38836 3.69191 6.19355 4.15222 6.19355 4.64516V5.16129C6.19355 5.75202 6.48677 6.30633 6.96774 6.64201V6.76588L5.93548 7.02432L4.90297 6.76588V6.64226C5.38395 6.30658 5.67742 5.75202 5.67742 5.16129V4.71018C5.67742 4.4065 5.60433 4.1182 5.47719 3.8624ZM4.29032 2.30166L5.11479 1.47719L5.84047 1.94947L5.97933 1.86429C6.32724 1.65108 6.70325 1.49496 7.09677 1.40083L7.25554 1.36278L7.43511 0.516129H8.56515L8.7442 1.36253L8.90297 1.40045C9.2965 1.49471 9.6725 1.65083 10.0204 1.86404L10.1593 1.94922L10.885 1.47694L11.7084 2.30066L11.4157 2.98601C11.2165 3.0717 11.0318 3.19229 10.871 3.34816C10.8604 3.35849 10.8513 3.36958 10.841 3.38017C10.233 2.41368 9.15814 1.80645 8 1.80645C6.83354 1.80645 5.75567 2.41935 5.14919 3.39567C4.9869 3.22581 4.79385 3.08821 4.57989 2.99206L4.29032 2.30166ZM3.35484 7.16923V6.35194L3.22606 6.27747C2.82787 6.04725 2.58065 5.61933 2.58065 5.16129V4.64516C2.58065 4.29322 2.71976 3.96409 2.97266 3.719C3.2253 3.47404 3.56124 3.34199 3.91091 3.35559C4.6003 3.37626 5.16129 3.984 5.16129 4.71018V5.16129C5.16129 5.61933 4.91381 6.04725 4.51537 6.27797L4.38634 6.35257L4.38735 7.16923L5.27281 7.3905C5.04335 7.62525 4.90323 7.94292 4.90323 8.28982V8.48097L4.09829 8.6599L4.1192 8.58682L4.12903 8.10988L2.76802 7.3159L3.35484 7.16923ZM0.516129 6.70968H0.704259L2.56023 7.79221L1.62374 11.5381L0.516129 11.1687V6.70968ZM2.62248 11.871L2.11454 11.7017L3.02432 8.063L3.6129 8.40625V8.47996L2.64415 11.871H2.62248ZM4.3871 12.6139C4.3871 12.5378 4.41784 12.4632 4.47177 12.4093L4.9254 11.9556C4.97933 11.9017 5.05393 11.871 5.13004 11.871C5.28957 11.871 5.41935 12.0008 5.41935 12.1603C5.41935 12.2364 5.38861 12.311 5.33468 12.3649L4.88105 12.8185C4.82712 12.8725 4.75252 12.9032 4.67641 12.9032C4.51688 12.9032 4.3871 12.7734 4.3871 12.6139ZM5.16129 13.3881C5.16129 13.312 5.19204 13.2374 5.24597 13.1835L5.6996 12.7298C5.75353 12.6759 5.82812 12.6452 5.90423 12.6452C6.06376 12.6452 6.19355 12.7749 6.19355 12.9345C6.19355 13.0106 6.1628 13.0852 6.10887 13.1391L5.65524 13.5927C5.60131 13.6467 5.52671 13.6774 5.4506 13.6774C5.29108 13.6774 5.16129 13.5476 5.16129 13.3881ZM5.93548 14.1623C5.93548 14.0862 5.96623 14.0116 6.02016 13.9577L6.47379 13.504C6.52772 13.4501 6.60232 13.4194 6.67843 13.4194C6.83795 13.4194 6.96774 13.5491 6.96774 13.7087C6.96774 13.7848 6.937 13.8594 6.88306 13.9133L6.42944 14.3669C6.3755 14.4209 6.30091 14.4516 6.2248 14.4516C6.06527 14.4516 5.93548 14.3218 5.93548 14.1623ZM6.99899 15.2258C6.83947 15.2258 6.70968 15.096 6.70968 14.9365C6.70968 14.8604 6.74042 14.7858 6.79435 14.7319L7.24798 14.2782C7.30192 14.2243 7.37651 14.1935 7.45262 14.1935C7.61215 14.1935 7.74194 14.3233 7.74194 14.4829C7.74194 14.559 7.71119 14.6336 7.65726 14.6875L7.20363 15.1411C7.1497 15.1951 7.0751 15.2258 6.99899 15.2258ZM8.24698 15.4839H8.19922C8.13344 15.4839 8.07044 15.4599 8.02142 15.4165L7.82838 15.2462L8.02218 15.0524C8.09136 14.9832 8.14503 14.901 8.18473 14.8126L8.41935 15.0079C8.48072 15.0591 8.51613 15.1344 8.51613 15.2147C8.51613 15.3632 8.39541 15.4839 8.24698 15.4839ZM10.5612 13.1613H10.5166C10.4519 13.1613 10.3886 13.1384 10.3391 13.0968L8.93964 11.9306L8.609 12.3272L9.96799 13.4596C10.0291 13.5107 10.0645 13.5861 10.0645 13.6663C10.0645 13.8148 9.9438 13.9355 9.79536 13.9355H9.73904C9.67641 13.9355 9.61517 13.9133 9.56691 13.873L8.1652 12.705L7.83455 13.1017L9.19355 14.2341C9.25491 14.2849 9.29032 14.3603 9.29032 14.4405C9.29032 14.589 9.16961 14.7097 9.02117 14.7097C8.92213 14.7097 8.8256 14.6745 8.74962 14.6114L8.17364 14.1313C8.04675 13.872 7.78604 13.6912 7.48072 13.6803C7.46585 13.2593 7.12752 12.921 6.70653 12.9061C6.69166 12.4851 6.35333 12.1468 5.93233 12.1319C5.91721 11.7011 5.56439 11.3548 5.13004 11.3548C4.91797 11.3548 4.71043 11.4408 4.56048 11.5907L4.10685 12.0444C4.07976 12.0714 4.05733 12.1022 4.03453 12.1327L3.24181 11.657L3.93674 9.2248L5.67893 8.83745C6.13596 8.73526 6.61782 8.75743 7.06351 8.90007L7.44367 9.02167L6.15486 9.66608C5.86038 9.81363 5.67742 10.1099 5.67742 10.4393V10.4903C5.67742 10.967 6.06527 11.3548 6.54196 11.3548C6.69859 11.3548 6.8527 11.3122 6.98664 11.2315L7.94758 10.6552C8.14062 10.5396 8.3997 10.5649 8.56641 10.7148L10.7468 12.6772C10.8052 12.7301 10.8387 12.8052 10.8387 12.8838C10.8387 13.0369 10.7143 13.1613 10.5612 13.1613ZM15.4839 10.1631L11.1362 12.3371C11.1221 12.3221 11.1074 12.3078 11.0919 12.294L8.91179 10.3317C8.72077 10.1593 8.47379 10.0645 8.21648 10.0645C8.02835 10.0645 7.84362 10.1157 7.68183 10.2127L6.72051 10.7892C6.66658 10.8217 6.60496 10.8387 6.54196 10.8387C6.34967 10.8387 6.19355 10.6826 6.19355 10.4903V10.4393C6.19355 10.3063 6.26739 10.1871 6.38609 10.1278L7.8256 9.40801C8.07195 9.28465 8.36442 9.25706 8.62991 9.33342L10.2516 9.79662L10.6444 9.80645L15.4839 7.25932V10.1631Z" fill="#23331A"/>
</g>
<defs>
<clipPath id="clip0">
<rect width="16" height="16" fill="white"/>
</clipPath>
</defs>
</svg>
