<svg width="18" height="18" viewBox="0 0 18 18" fill="none" xmlns="http://www.w3.org/2000/svg">
<path fill-rule="evenodd" clip-rule="evenodd" d="M3.16675 2.33335C2.94573 2.33335 2.73377 2.42115 2.57749 2.57743C2.42121 2.73371 2.33341 2.94567 2.33341 3.16669V14.4882L4.24416 12.5774C4.40044 12.4212 4.6124 12.3334 4.83341 12.3334H14.8334C15.0544 12.3334 15.2664 12.2456 15.4227 12.0893C15.579 11.933 15.6667 11.721 15.6667 11.5V3.16669C15.6667 2.94567 15.579 2.73371 15.4227 2.57743C15.2664 2.42115 15.0544 2.33335 14.8334 2.33335H3.16675ZM1.39898 1.39892C1.86782 0.930079 2.50371 0.666687 3.16675 0.666687H14.8334C15.4965 0.666687 16.1323 0.930079 16.6012 1.39892C17.07 1.86776 17.3334 2.50365 17.3334 3.16669V11.5C17.3334 12.1631 17.07 12.7989 16.6012 13.2678C16.1323 13.7366 15.4965 14 14.8334 14H5.17859L2.08934 17.0893C1.85101 17.3276 1.49257 17.3989 1.18118 17.2699C0.869783 17.1409 0.666748 16.8371 0.666748 16.5V3.16669C0.666748 2.50365 0.93014 1.86776 1.39898 1.39892Z" fill="#23331A"/>
</svg>
