<svg width="20" height="20" viewBox="0 0 20 20" fill="none" xmlns="http://www.w3.org/2000/svg">
<path fill-rule="evenodd" clip-rule="evenodd" d="M15.5896 4.41076C15.915 4.7362 15.915 5.26384 15.5896 5.58928L5.58958 15.5893C5.26414 15.9147 4.73651 15.9147 4.41107 15.5893C4.08563 15.2638 4.08563 14.7362 4.41107 14.4108L14.4111 4.41076C14.7365 4.08533 15.2641 4.08533 15.5896 4.41076Z" fill="#959595"/>
<path fill-rule="evenodd" clip-rule="evenodd" d="M4.41107 4.41076C4.73651 4.08533 5.26414 4.08533 5.58958 4.41076L15.5896 14.4108C15.915 14.7362 15.915 15.2638 15.5896 15.5893C15.2641 15.9147 14.7365 15.9147 14.4111 15.5893L4.41107 5.58928C4.08563 5.26384 4.08563 4.7362 4.41107 4.41076Z" fill="#959595"/>
</svg>
