<svg xmlns="http://www.w3.org/2000/svg" viewBox="0 0 574 111.84"><defs><style>.cls-1{fill:#565009;}.cls-2{fill:#9e9a24;}.cls-3{fill:#2b700b;}.cls-4{fill:#5ead2a;}.cls-5{fill:#afaa28;}.cls-6{fill:#726e0b;}.cls-7{fill:#172714;}</style></defs><title>logo</title><g id="Layer_2" data-name="Layer 2"><g id="Layer_1-2" data-name="Layer 1"><path class="cls-1" d="M36.47,57.27C48,63.77,51.3,79.65,51.3,79.65S36,85,24.48,78.51.36,55.31,2.26,52,25,50.78,36.47,57.27Z"/><path class="cls-2" d="M48.27,77.33l-3.51-2L43,68.86a.53.53,0,0,0-1,.28l1.52,5.47-3-1.7-1.8-6.49a.52.52,0,0,0-.65-.36.52.52,0,0,0-.37.65l1.52,5.47-3.35-1.9L34,63.79a.53.53,0,0,0-1,.29l1.52,5.47-3-1.71-1.8-6.48A.53.53,0,0,0,29,61a.52.52,0,0,0-.37.65l1.52,5.47-3-1.7-1.81-6.49a.53.53,0,1,0-1,.28l1.52,5.47L22.5,62.78l-1.8-6.49a.53.53,0,0,0-.65-.37.52.52,0,0,0-.37.65L21.2,62l-3-1.7-1.81-6.49a.53.53,0,0,0-.65-.37.54.54,0,0,0-.37.66l1.52,5.46-3.13-1.77a.53.53,0,0,0-.52.93l3.2,1.8L10.91,62.1a.53.53,0,0,0,.14,1l.14,0,6.54-1.82,3,1.7-5.53,1.54a.53.53,0,0,0,.15,1l.14,0,6.54-1.82,3.35,1.89-5.52,1.54a.53.53,0,0,0-.37.65.54.54,0,0,0,.51.39l.14,0,6.54-1.82,3,1.7L24.19,69.6a.53.53,0,0,0-.36.66.52.52,0,0,0,.51.38.36.36,0,0,0,.14,0L31,68.8l3,1.71L28.51,72a.53.53,0,0,0,.14,1l.14,0,6.54-1.82,3.36,1.9-5.52,1.53a.53.53,0,0,0,.14,1l.14,0L40,73.87l3,1.7-5.52,1.54a.53.53,0,0,0-.37.65.54.54,0,0,0,.51.39l.14,0,6.55-1.82,3.44,1.94a.48.48,0,0,0,.26.07.52.52,0,0,0,.46-.27A.54.54,0,0,0,48.27,77.33Z"/><path class="cls-3" d="M45.7,76.71c19-1,35.3,15.75,35.3,15.75s-14.48,18.33-33.48,19.32S.29,102.21,0,96.67,26.7,77.7,45.7,76.71Z"/><path class="cls-4" d="M75.53,92l-5.8.3-7.2-6.49a.77.77,0,0,0-1.08,0,.76.76,0,0,0,.06,1.08l6.07,5.47-5,.26-7.2-6.49a.76.76,0,1,0-1,1.13l6.07,5.47-5.54.29-7.2-6.49a.76.76,0,1,0-1,1.13l6.07,5.47-5,.26-7.21-6.49a.75.75,0,0,0-1.07.06.76.76,0,0,0,.05,1.07l6.07,5.47-5,.26-7.2-6.49a.76.76,0,0,0-1.08.06.75.75,0,0,0,.06,1.07l6.07,5.47L33,94.19l-7.2-6.49a.76.76,0,0,0-1.08.06.75.75,0,0,0,.06,1.07l6.07,5.47-5,.26-7.2-6.49a.77.77,0,0,0-1.08.06.76.76,0,0,0,.06,1.07l6.07,5.47-5.17.27a.77.77,0,0,0,0,1.53h0l5.29-.28-5.52,6.13a.76.76,0,0,0,.06,1.08.74.74,0,0,0,.51.19.75.75,0,0,0,.56-.25L26,96.08l5-.26L25.49,102a.75.75,0,0,0,.56,1.27.75.75,0,0,0,.57-.25l6.54-7.26,5.54-.29-5.52,6.13a.76.76,0,0,0,0,1.08.77.77,0,0,0,.51.19.75.75,0,0,0,.57-.25l6.54-7.26,5-.26-5.53,6.13a.77.77,0,0,0,.06,1.08.75.75,0,0,0,.51.19.73.73,0,0,0,.56-.25L48,94.94l5-.26-5.52,6.13a.76.76,0,0,0,.06,1.08.74.74,0,0,0,.51.19.75.75,0,0,0,.56-.25l6.55-7.26,5.53-.29-5.52,6.13a.75.75,0,0,0,.56,1.27.75.75,0,0,0,.57-.25l6.55-7.26,5-.26L62.25,100a.75.75,0,0,0,0,1.07.73.73,0,0,0,.51.2.79.79,0,0,0,.57-.25l6.54-7.27,5.69-.29A.76.76,0,0,0,75.53,92Z"/><path class="cls-5" d="M74.12,40.4c12.18,20.89,2.76,49.08,2.76,49.08s-29.16-5.7-41.34-26.59S18.84,3.92,24.94.37,61.94,19.51,74.12,40.4Z"/><path class="cls-6" d="M74.23,83l-3.71-6.39,3.14-11.92a1,1,0,0,0-1.88-.49l-2.64,10L66,68.79l3.14-11.92a1,1,0,0,0-1.88-.49L64.57,66.43,61,60.34l3.14-11.93a1,1,0,0,0-1.88-.49L59.64,58l-3.19-5.48,3.14-11.92a1,1,0,0,0-1.88-.49L55.07,50.13l-3.19-5.48L55,32.73a1,1,0,0,0-1.88-.49l-2.64,10L46.94,36.2l3.15-11.93a1,1,0,0,0-1.88-.49l-2.65,10-3.19-5.48,3.15-11.92a1,1,0,0,0-1.88-.49L41,26l-3.31-5.7a1,1,0,0,0-1.68,1l3.39,5.82L29.25,24.41a1,1,0,0,0-1.19.69,1,1,0,0,0,.69,1.19l12,3.17L44,34.93,33.81,32.25a1,1,0,0,0-1.18.69,1,1,0,0,0,.69,1.19l12,3.17,3.55,6.09L38.75,40.71a1,1,0,0,0-.5,1.88l12,3.16,3.19,5.48L43.32,48.55a1,1,0,0,0-.5,1.88l12,3.16L58,59.07,47.89,56.39a1,1,0,0,0-1.19.69,1,1,0,0,0,.69,1.19l12,3.17L63,67.53,52.82,64.85a1,1,0,0,0-.5,1.88l12,3.16,3.19,5.48L57.39,72.69a1,1,0,0,0-.5,1.88l12,3.16L72.56,84a1,1,0,0,0,.84.48,1,1,0,0,0,.49-.13A1,1,0,0,0,74.23,83Z"/><path class="cls-7" d="M128.84,47.35H94.93V64h31.28V80.11H94.93v31.4H75.64V30.68h53.2Z"/><path class="cls-7" d="M143.86,71.21l-9.47-10.16q10.16-9.6,25.34-9.59,14,0,20.09,7.13t6.06,22.89v28.66H168.75v-6h-.34a13.93,13.93,0,0,1-6.51,5.42,23.17,23.17,0,0,1-9.59,2,28.2,28.2,0,0,1-9.42-1.54,17.55,17.55,0,0,1-7.82-5.77,16.12,16.12,0,0,1-3.42-10.5q0-19.19,36.53-19.18v-.91a7.13,7.13,0,0,0-2.85-6.11,12.18,12.18,0,0,0-7.43-2.11A20.17,20.17,0,0,0,143.86,71.21Zm24.89,16.1v-2h-2.4q-17.46,0-17.46,7.77a4.74,4.74,0,0,0,2.39,4.39A10.88,10.88,0,0,0,157,99c3.73,0,6.62-1,8.68-3.14A11.63,11.63,0,0,0,168.75,87.31Z"/><path class="cls-7" d="M226.36,53.51,225.56,70a18.86,18.86,0,0,0-4.8-.57q-6.73,0-10,4.17a13.84,13.84,0,0,0-3.31,8.73v29.23H188.68V54.66h18v8.21H207a17.61,17.61,0,0,1,6.28-7.13,16.33,16.33,0,0,1,9.13-2.68A12.88,12.88,0,0,1,226.36,53.51Z"/><path class="cls-7" d="M320.5,111.51H301.78V80.46q0-12-8.11-12a8,8,0,0,0-7,3.59,15.11,15.11,0,0,0-2.45,8.74v30.71H265.47V79.09q0-10.62-8.1-10.62A8,8,0,0,0,250.52,72,14.52,14.52,0,0,0,248,80.68v30.83H229.17V54.66h18.15v7.87h.23a18,18,0,0,1,6.62-6.73,19.39,19.39,0,0,1,10.39-2.74q12.1,0,17.12,9.7,6.17-9.7,18.16-9.7A19.41,19.41,0,0,1,312,56.77a19.18,19.18,0,0,1,6.67,8.73,31.44,31.44,0,0,1,1.83,10.85Z"/><path class="cls-7" d="M387,111.51H323.31V94.61l38.48-47.38H324.22V30.68h62V46.32L346.83,94.61H387Z"/><path class="cls-7" d="M443.83,59.22Q453,67.44,453,81t-9.13,22q-9.13,8.44-22.49,8.45T399,103.06q-9.13-8.44-9.14-22T399,59.22Q408.1,51,421.34,51T443.83,59.22ZM434.92,81a15.31,15.31,0,0,0-3.65-10.16,12.29,12.29,0,0,0-9.93-4.34,12.05,12.05,0,0,0-9.82,4.28A15.52,15.52,0,0,0,408,81a15.84,15.84,0,0,0,3.59,10.33,13.3,13.3,0,0,0,19.75,0A15.8,15.8,0,0,0,434.92,81Z"/><path class="cls-7" d="M511.94,111.51H493.1V80.46q0-12-8.45-12A8.7,8.7,0,0,0,477.23,72a14.15,14.15,0,0,0-2.62,8.67v30.83H455.77V54.66h18.15v7.87h.23a16.9,16.9,0,0,1,6.68-6.73,19.83,19.83,0,0,1,10.33-2.74q10.62,0,15.7,6.79a26.82,26.82,0,0,1,5.08,16.5Z"/><path class="cls-7" d="M574,81.94c0,2.06,0,3.54-.11,4.45H532.67A10.77,10.77,0,0,0,537.12,94a14.54,14.54,0,0,0,9.14,3.08q8.22,0,12.56-5.93l13,8.22q-8.34,12.11-25.8,12.1-13.37,0-22.32-8.05t-9-22q0-13.7,8.73-22.09t22-8.39q12.78,0,20.66,8.28T574,81.94Zm-41.33-7.19h24.09A10.89,10.89,0,0,0,553.85,67q-2.91-3.07-8.28-3.08a13,13,0,0,0-8.9,3.2A11,11,0,0,0,532.67,74.75Z"/></g></g></svg>